PathFileType        4      (X/Y/Z)      C:\Users\pc\Desktop\IMUTRC\Sujet_02\Sujet_02_velo_100.trc         
DataRate	CameraRate	NumFrames	NumMarkers	Units	OrigDataRate	OrigDataStartFrame	OrigNumFrames
60.0	60.0	4	64	mm	60.0	826	943
Frame#	Time	pHipOrigin			pRightASI			pLeftASI			pRightCSI			pLeftCSI			pRightIschialTub			pLeftIschialTub			pSacrum			pL5SpinalProcess			pL3SpinalProcess			pT12SpinalProcess			pIJ			pT4SpinalProcess			pT8SpinalProcess			pPX			pC7SpinalProcess			pTopOfHead			pRightAuricularis			pLeftAuricularis			pBackOfHead			pRightAcromion			pLeftAcromion			pRightArmLatEpicondyle			pRightArmMedEpicondyle			pLeftArmLatEpicondyle			pLeftArmMedEpicondyle			pRightUlnarStyloid			pRightRadialStyloid			pRightOlecranon			pLeftUlnarStyloid			pLeftRadialStyloid			pLeftOlecranon			pRightTopOfHand			pRightPinky			pRightBallHand			pLeftTopOfHand			pLeftPinky			pLeftBallHand			pRightGreaterTrochanter			pRightKneeLatEpicondyle			pRightKneeMedEpicondyle			pRightPatella			pLeftGreaterTrochanter			pLeftKneeLatEpicondyle			pLeftKneeMedEpicondyle			pLeftPatella			pRightTibialTub			pRightLatMalleolus			pRightMedMalleolus			pLeftTibialTub			pLeftLatMalleolus			pLeftMedMalleolus			pRightHeelFoot			pRightFirstMetatarsal			pRightFifthMetatarsal			pRightPivotFoot			pRightHeelCenter			pRightToe			pLeftHeelFoot			pLeftFirstMetatarsal			pLeftFifthMetatarsal			pLeftPivotFoot			pLeftHeelCenter			pLeftToe			
		X1	Y1	Z1	X2	Y2	Z2	X3	Y3	Z3	X4	Y4	Z4	X5	Y5	Z5	X6	Y6	Z6	X7	Y7	Z7	X8	Y8	Z8	X9	Y9	Z9	X10	Y10	Z10	X11	Y11	Z11	X12	Y12	Z12	X13	Y13	Z13	X14	Y14	Z14	X15	Y15	Z15	X16	Y16	Z16	X17	Y17	Z17	X18	Y18	Z18	X19	Y19	Z19	X20	Y20	Z20	X21	Y21	Z21	X22	Y22	Z22	X23	Y23	Z23	X24	Y24	Z24	X25	Y25	Z25	X26	Y26	Z26	X27	Y27	Z27	X28	Y28	Z28	X29	Y29	Z29	X30	Y30	Z30	X31	Y31	Z31	X32	Y32	Z32	X33	Y33	Z33	X34	Y34	Z34	X35	Y35	Z35	X36	Y36	Z36	X37	Y37	Z37	X38	Y38	Z38	X39	Y39	Z39	X40	Y40	Z40	X41	Y41	Z41	X42	Y42	Z42	X43	Y43	Z43	X44	Y44	Z44	X45	Y45	Z45	X46	Y46	Z46	X47	Y47	Z47	X48	Y48	Z48	X49	Y49	Z49	X50	Y50	Z50	X51	Y51	Z51	X52	Y52	Z52	X53	Y53	Z53	X54	Y54	Z54	X55	Y55	Z55	X56	Y56	Z56	X57	Y57	Z57	X58	Y58	Z58	X59	Y59	Z59	X60	Y60	Z60	X61	Y61	Z61	X62	Y62	Z62	X63	Y63	Z63	X64	Y64	Z64	
826	13.75	0.0	1250.00218	7.654055843321067E-14	77.97970000000001	1368.10682	130.47696000000008	27.29856999999999	1362.20442	-154.0297799999999	16.28834000000001	1430.42248	113.67784000000009	-25.312190000000008	1425.5984	-119.46671999999991	-37.74126999999999	1182.35167	68.33156000000007	-58.51316	1179.96801	-48.29746999999992	-72.5881	1261.23943	12.712850000000081	-47.38941	1376.61989	6.356420000000087	1.6458600000000003	1488.36809	4.4268000000000916	57.49159	1585.30356	4.483550000000093	320.26163	1612.88591	-22.47449999999992	207.83237	1721.28564	3.0079500000000925	130.42021	1667.93708	4.483550000000094	217.59402	1535.70075	-21.396179999999923	262.14575	1752.78399	3.4052300000000915	490.52299	1758.40262	-68.50181999999991	432.12334	1724.63411	17.08289000000008	385.64199	1762.37538	-97.61651999999991	406.13011	1791.37657	-23.382559999999916	258.5135	1680.99045	198.1842300000001	226.67463	1738.76581	-204.59740999999988	302.66795	1399.66192	264.0753800000001	265.66448	1377.69821	215.66439000000005	297.16283	1446.88107	-219.92092999999994	259.59183	1430.0252	-169.86408999999995	397.90081	1141.43219	334.45007000000004	445.6875	1159.87717	306.01643000000007	258.34324	1387.00583	253.85969000000006	421.28337	1193.13489	-244.04128999999995	459.13815	1214.92834	-205.05143999999996	256.86765	1434.84927	-215.55088999999995	586.89092	1061.23908	323.66685	501.1927	1074.34921	351.30595	441.03369	1116.12	327.58287000000007	618.78655	1158.06105	-187.74152999999998	540.1258	1148.4129	-232.40675999999996	468.33226	1175.20069	-224.74499999999995	47.84344000000001	1237.34609	173.4395800000001	356.6408	913.90625	140.18186000000003	350.22763	907.37956	54.029610000000034	385.41498	946.36942	89.10345000000002	3.2349699999999895	1218.10655	-174.00710999999993	391.09035	993.87234	-155.50537999999997	402.66813	1007.49325	-70.77196999999997	418.44568	1043.70216	-120.03425999999997	383.76912	854.6553	88.59266000000002	97.21924	532.52079	58.115880000000026	103.74592	540.40957	-9.534639999999973	445.97127	960.16059	-122.98545999999997	292.28201	558.62754	-167.53718	302.89497	552.8954	-100.17043999999999	-8.9671	477.1291	-8.796839999999971	132.06607	357.03808	-25.368939999999984	109.87533	350.6249	59.47797000000001	139.2738	336.94724	19.353040000000014	21.50969	447.04959	-3.1214599999999737	200.56789	280.64748	31.101080000000007	200.73815	477.07234	-102.55409999999999	356.75431	377.07217	-117.93437	326.90182	380.81792	-200.51113	361.74865	365.38089	-165.77782	233.99587	452.83848	-115.60746999999999	428.15058	320.82916	-191.77105	
827	13.767	0.0	1250.00218	7.654055843321067E-14	78.09321000000001	1367.93656	130.5904700000001	28.54715999999999	1361.75039	-154.14328999999992	16.799120000000006	1430.53598	113.39407000000008	-23.836590000000008	1425.4849	-119.92074999999991	-38.422309999999996	1182.69219	68.27481000000007	-58.74017	1180.19502	-48.410979999999924	-72.5881	1261.63671	12.372330000000082	-46.76512	1376.8469	5.959150000000087	2.6674300000000004	1488.36809	4.370040000000092	58.68342	1585.1333	4.824070000000093	321.62372	1612.60214	-20.828639999999922	209.13771	1720.94512	4.597060000000093	131.72554	1667.65331	5.448360000000094	218.89936	1535.47374	-20.54486999999992	263.56459	1752.44347	5.3916100000000915	491.99859	1757.77833	-66.23166999999991	433.54219	1723.78281	19.182780000000083	387.11759	1762.20512	-95.28960999999991	407.71921	1790.80903	-20.998899999999914	259.42157	1680.30941	199.65983000000008	229.22855	1739.3901	-203.0650499999999	303.97329	1398.69711	263.9051100000001	267.08333	1376.90365	215.32387000000006	301.07885	1448.18641	-219.80741999999995	263.22407	1430.81975	-170.20460999999995	400.17096	1140.75114	333.54201000000006	447.84414	1159.42314	305.16512000000006	259.70533	1385.98426	253.57593000000006	423.55352	1193.70243	-246.02766999999994	461.52181	1214.92834	-206.81079999999994	260.67015	1436.21136	-215.72114999999994	589.21783	1060.89856	322.8723	503.51961	1073.83843	350.5114	443.30384	1115.55246	326.73156000000006	620.99995	1157.94754	-189.50089999999997	542.39595	1148.46966	-234.22287999999998	470.60241	1175.42771	-226.56111999999993	48.01370000000001	1240.07027	173.7801000000001	375.48306	935.13217	144.83567000000002	369.86444	927.47041	58.740170000000035	402.49787	968.73041	93.64375000000003	0.5675399999999894	1215.66614	-173.9503599999999	372.19134	965.38194	-157.32149999999996	385.81225	979.17311	-72.87185999999997	403.34917	1013.5659	-122.81519999999998	400.22771	875.14341	92.84920000000002	102.61085	563.56512	58.56991000000003	109.47806	571.90792	-8.967099999999972	429.62618	933.42955	-125.31235999999997	290.74966	526.22112	-167.0264	302.21392	521.17004	-99.71640999999998	-5.334860000000001	511.91917	-8.910339999999968	131.95256	387.91214	-27.35532999999998	109.64832	380.93143	57.37808000000001	138.536	366.96999	17.026140000000016	24.17711	480.87485	-3.688999999999972	198.24098	308.57035	27.922860000000007	202.10024	441.31746	-102.95136999999998	361.46488	346.76565	-118.61542000000001	331.8394	350.34113	-201.30569	367.02675	335.75541	-166.51561	236.20927	418.38893	-116.17499999999998	435.07454	293.58735	-192.67911	
828	13.783	0.0	1250.00218	7.654055843321067E-14	77.92295000000001	1367.70954	130.87424000000007	30.022749999999988	1361.35312	-154.08652999999993	17.02614000000001	1430.59274	113.28056000000008	-22.190730000000006	1425.42814	-120.31802999999991	-39.160109999999996	1182.97596	68.16130000000007	-58.79692	1180.42204	-48.63799999999992	-72.5881	1262.03399	11.918300000000084	-46.14083	1377.01716	5.561870000000087	3.5754900000000003	1488.31134	4.313290000000092	59.76174	1585.0198	5.2781000000000935	322.8723	1612.43187	-18.84225999999992	210.27279	1720.7181	6.299670000000093	132.80386	1667.4263	6.5266900000000945	220.14794	1535.36023	-19.409799999999922	264.69967	1752.21646	7.548250000000092	493.30393	1757.15403	-63.56423999999992	434.62051	1723.10176	21.679950000000083	388.53643	1762.09161	-92.73568999999992	409.13806	1790.29825	-18.274719999999913	260.10261	1679.85538	201.41919000000007	231.72572	1739.84413	-201.30568999999988	304.9381	1397.78905	263.4510800000001	268.1049	1376.33612	214.64283000000006	304.99486	1449.435	-219.58040999999994	266.85631	1431.55755	-170.31811999999994	402.10059	1140.1836	332.3501800000001	449.71702	1159.13937	304.03004000000004	260.7269	1385.0762	253.06514000000007	425.65341	1194.15646	-248.07080999999994	463.67845	1214.81484	-208.62692999999993	264.4159	1437.5167	-215.72114999999994	591.20421	1060.55804	321.85073	505.50599	1073.55466	349.48983	445.23347	1115.15518	325.59648000000004	622.98633	1157.60702	-191.26026999999996	544.38234	1148.46966	-236.09575999999998	472.7023	1175.54121	-228.49074999999993	47.50292000000002	1242.45393	174.23413000000008	393.9848	958.912	149.54623000000004	389.72826	950.62595	63.45074000000004	419.35374	994.0426	98.41107000000002	-2.2134000000000107	1213.67976	-173.8936099999999	349.7736	936.324	-158.96735999999999	365.43764	949.94491	-74.91499999999998	384.90419	982.40807	-125.42586999999997	417.65113	898.46922	96.87872000000003	112.08873	594.89321	60.27252000000003	119.18296	603.63329	-7.26447999999997	410.10287	905.10941	-127.12848999999997	283.42842	493.7012	-166.2886	295.17645	489.38792	-99.03535999999998	3.1782099999999995	546.70924	-8.172549999999966	137.74144	420.03479	-28.774169999999984	115.26694	412.08926	55.78897000000002	143.87085	398.18458	15.210020000000016	32.00914	514.92712	-3.5187299999999704	202.21375	338.36608	25.02842000000001	196.93564	406.7544	-103.57565999999998	358.68394	316.34562	-119.40997000000002	329.34223	319.97786	-202.21375	364.7566	305.90292	-167.42368	231.66896	384.73393	-116.85604999999998	433.88271	265.77799	-193.64393	
829	13.8	0.0	1250.00218	7.654055843321067E-14	77.63918000000001	1367.53928	131.15800000000007	31.271339999999988	1361.06935	-154.0297799999999	17.082890000000006	1430.64949	113.16705000000009	-20.885390000000008	1425.37139	-120.60179999999991	-39.784409999999994	1183.20298	67.99104000000007	-58.79692	1180.5923	-48.921769999999924	-72.64485	1262.31776	11.521020000000084	-45.74355	1377.13067	5.221350000000087	4.14303	1488.31134	4.370040000000092	60.32928	1584.96304	5.788890000000094	323.6101	1612.71564	-17.026139999999923	210.72682	1720.77486	8.002280000000093	133.3714	1667.36954	7.605010000000094	220.99925	1535.47374	-18.388229999999922	265.21045	1752.32996	9.591390000000091	494.04173	1756.98377	-60.84005999999992	435.07454	1722.81799	24.120360000000083	389.27423	1762.43214	-90.18176999999991	409.93261	1790.29825	-15.607289999999916	260.15936	1679.68511	203.0650500000001	233.54184	1740.52517	-199.6598299999999	305.05161	1396.88099	262.6565300000001	268.38866	1375.82533	213.56450000000007	307.83255	1450.79709	-219.63715999999994	269.46699	1432.40886	-170.71538999999996	403.40593	1139.78633	330.87458000000004	450.90885	1159.02586	302.61120000000005	260.89716	1384.28165	252.10033000000007	426.90199	1194.8375	-250.00043999999994	465.04054	1214.92834	-210.38628999999995	267.14008	1438.93554	-216.00491999999994	592.45279	1060.33102	320.6589	506.69782	1073.32764	348.18449	446.4253	1114.87141	324.2343900000001	624.17816	1157.66377	-192.96287999999998	545.57417	1148.63992	-237.85512999999997	473.95088	1175.88174	-230.30686999999995	46.935380000000016	1244.44031	174.63141000000007	410.67041	983.14587	152.89471000000003	407.71921	974.68956	66.74245000000003	434.22323	1019.80882	102.04331000000003	-5.051090000000011	1212.0339	-173.78009999999992	326.39104	910.38752	-160.32944999999998	344.09822	923.61115	-76.61760999999996	365.15387	954.14469	-127.63926999999997	433.93946	922.41932	99.65965000000003	123.89352	623.61062	62.31566000000003	130.76073	632.74798	-5.1645899999999685	389.558	879.05942	-128.77434999999997	270.94258	465.04054	-165.60755	282.97439	461.29479	-98.35430999999998	14.81274	576.61849	-7.150979999999965	148.92194	449.66026	-28.774169999999984	126.16367	440.80667	55.67547000000002	154.82433	427.24252	14.983000000000018	43.53016	544.60935	-2.7809399999999695	212.88346	367.0835	24.34738000000001	185.52813	377.18568	-103.68916999999999	348.298	288.70652	-119.58023000000001	319.12655	292.39552	-202.38401	354.59767	278.54759	-167.59394	220.48847	355.67599	-116.96955999999999	424.23457	239.38748	-193.87094	
